<?xml version="1.0" encoding="UTF-8" standalone="no"?>
<svg width="36px" height="36px" viewBox="0 0 36 36" version="1.1" xmlns="http://www.w3.org/2000/svg" xmlns:xlink="http://www.w3.org/1999/xlink" xmlns:sketch="http://www.bohemiancoding.com/sketch/ns">
    <!-- Generator: Sketch 3.3.3 (12072) - http://www.bohemiancoding.com/sketch -->
    <title>enemies</title>
    <desc>Created with Sketch.</desc>
    <defs></defs>
    <g id="Page-1" stroke="none" stroke-width="1" fill="none" fill-rule="evenodd" sketch:type="MSPage">
        <g id="Home" sketch:type="MSArtboardGroup" transform="translate(-606.000000, -896.000000)" fill="#D115B2">
            <g id="Find-Enemies-+-fi-skull-+-Love-to-debate?-Find" sketch:type="MSLayerGroup" transform="translate(605.500000, 893.000000)">
                <g id="enemies" transform="translate(0.177557, 3.000000)" sketch:type="MSShapeGroup">
                    <path d="M35.2048101,27.9414684 C34.1804051,26.9179747 32.5471899,26.8851646 31.5054684,27.8466835 L27.4042025,23.7454177 C28.5247595,22.027443 29.1786835,19.9768101 29.1786835,17.7726076 C29.1786835,15.5684051 28.5247595,13.5177722 27.4042025,11.7997975 L31.4822278,7.72177215 C32.5244051,8.68374684 34.1571646,8.6523038 35.1815696,7.62744304 C36.2324051,6.57934177 36.2428861,4.88551899 35.2061772,3.84835443 C34.5814177,3.22359494 33.7187848,2.98253165 32.9012658,3.11787342 C33.0516456,2.28850633 32.8119494,1.40673418 32.1757975,0.770582278 C31.1395443,-0.266126582 29.4484557,-0.25564557 28.3976203,0.79564557 C27.3741266,1.82005063 27.3413165,3.45326582 28.3028354,4.49498734 L24.2011139,8.59670886 C22.4831392,7.4761519 20.4325063,6.82268354 18.2283038,6.82268354 C16.0241013,6.82268354 13.9739241,7.4761519 12.2554937,8.59670886 L8.17701266,4.51822785 C9.13853165,3.47650633 9.10663291,1.84374684 8.08313924,0.818886076 C7.03275949,-0.231037975 5.34075949,-0.241974684 4.30405063,0.794278481 C3.67883544,1.41949367 3.43777215,2.28258228 3.57311392,3.09964557 C2.74374684,2.94926582 1.86151899,3.18941772 1.22536709,3.82465823 C0.188658228,4.86136709 0.200962025,6.5524557 1.25043038,7.60283544 C2.27529114,8.6281519 3.90896203,8.65959494 4.95113924,7.69807595 L9.05240506,11.7993418 C7.93139241,13.5173165 7.27792405,15.5679494 7.27792405,17.7721519 C7.27792405,19.9763544 7.93139241,22.0269873 9.05240506,23.744962 L4.97392405,27.823443 C3.93220253,26.8619241 2.29944304,26.8938228 1.27458228,27.9173165 C0.224658228,28.9676962 0.214177215,30.6596962 1.24997468,31.6964051 C1.87518987,32.3216203 2.73827848,32.5626835 3.55534177,32.4273418 C3.40496203,33.2567089 3.64511392,34.1389367 4.28035443,34.7750886 C5.31706329,35.8117975 7.0081519,35.7994937 8.05853165,34.7500253 C9.08339241,33.7251646 9.11529114,32.0914937 8.15377215,31.0493165 L12.1301772,27.0729114 L12.1301772,29.782481 C13.7911899,31.1427342 15.9138228,31.9602532 18.2283038,31.9602532 C20.5427848,31.9602532 22.6658734,31.1427342 24.3268861,29.782481 L24.3268861,27.0729114 L28.2795949,31.0256203 C27.3176203,32.0677975 27.3486076,33.7010127 28.3734684,34.7254177 C29.4220253,35.7762532 31.1158481,35.7867342 32.152557,34.7500253 C32.7773165,34.1252658 33.0183797,33.2621772 32.883038,32.4451139 C33.7124051,32.5959494 34.5941772,32.3557975 35.2303291,31.7201013 C36.2665823,30.6833924 36.2561013,28.9927595 35.2048101,27.9414684 L35.2048101,27.9414684 Z M15.2407595,21.8684051 C14.0837468,21.8684051 13.1463797,20.9314937 13.1463797,19.7758481 C13.1463797,18.6202025 14.0837468,17.6810127 15.2407595,17.6810127 C16.3959494,17.6810127 17.3328608,18.6202025 17.3328608,19.7758481 C17.3328608,20.9314937 16.3954937,21.8684051 15.2407595,21.8684051 L15.2407595,21.8684051 Z M21.2153924,21.8989367 C20.0597468,21.8989367 19.1228354,20.9620253 19.1228354,19.8063797 C19.1228354,18.6484557 20.0597468,17.7138228 21.2153924,17.7138228 C22.3724051,17.7138228 23.3093165,18.6484557 23.3093165,19.8063797 C23.3093165,20.9620253 22.3724051,21.8989367 21.2153924,21.8989367 L21.2153924,21.8989367 Z" id="Shape"></path>
                </g>
            </g>
        </g>
    </g>
</svg>