<?xml version="1.0" encoding="UTF-8" standalone="no"?>
<svg width="37px" height="28px" viewBox="0 0 37 28" version="1.1" xmlns="http://www.w3.org/2000/svg" xmlns:xlink="http://www.w3.org/1999/xlink" xmlns:sketch="http://www.bohemiancoding.com/sketch/ns">
    <!-- Generator: Sketch 3.3.3 (12072) - http://www.bohemiancoding.com/sketch -->
    <title>graph</title>
    <desc>Created with Sketch.</desc>
    <defs></defs>
    <g id="Page-1" stroke="none" stroke-width="1" fill="none" fill-rule="evenodd" sketch:type="MSPage">
        <g id="Home" sketch:type="MSArtboardGroup" transform="translate(-279.000000, -880.000000)" fill="#FFFFFF">
            <g id="Answer-a-short-quest-+-Twenty-questions-is--+-fi-clipboard-pencil-Copy" sketch:type="MSLayerGroup" transform="translate(279.000000, 879.000000)">
                <g id="graph" transform="translate(0.000000, 1.000000)" sketch:type="MSShapeGroup">
                    <g id="Group">
                        <path d="M33.9107097,27.6707742 C35.1368387,27.6707742 36.1290323,26.6772258 36.1290323,25.4501935 L36.1290323,2.54935484 C36.1290323,1.32232258 35.1368387,0.328774194 33.9107097,0.328774194 L2.21832258,0.328774194 C0.992645161,0.328774194 0,1.32232258 0,2.54935484 L0,25.4501935 C0,26.6772258 0.992193548,27.6707742 2.21832258,27.6707742 L33.9107097,27.6707742 L33.9107097,27.6707742 Z M31.6919355,23.2323226 L4.43709677,23.2323226 L4.43709677,4.76722581 L31.6919355,4.76722581 L31.6919355,23.2323226 L31.6919355,23.2323226 Z" id="Shape"></path>
                        <path d="M14.2547097,21.1792903 C13.8360645,21.1792903 13.4332258,21.0121935 13.1342581,20.7145806 L10.9231613,18.5030323 L8.23154839,20.7303871 C7.55412903,21.2912903 6.55696774,21.1928387 5.99967742,20.5199355 C5.4423871,19.8447742 5.53632258,18.8444516 6.21012903,18.2885161 L10.0145161,15.1412258 C10.6440645,14.6191613 11.5653548,14.6625161 12.1456774,15.2419355 L13.9846452,17.0822581 L18.0396774,10.7646452 C18.3512903,10.2814194 18.886,10.0023226 19.4762581,10.0411613 C20.0507097,10.0781935 20.560129,10.4232258 20.8062581,10.9452903 L23.1993548,16.0060645 L27.8202581,7.88064516 C28.2538065,7.11832258 29.2198065,6.85729032 29.982129,7.28541935 C30.7421935,7.72032258 31.0086452,8.68632258 30.576,9.44864516 L24.4471613,20.2250323 C24.1554194,20.7376129 23.5886452,21.0469677 23.0096774,21.0239355 C22.4180645,21.0031613 21.8892258,20.6531613 21.6363226,20.1170968 L19.1619355,14.8824516 L15.587871,20.4490323 C15.3290968,20.854129 14.9009677,21.1174194 14.4240645,21.1702581 C14.3680645,21.1747742 14.3107097,21.1792903 14.2547097,21.1792903 L14.2547097,21.1792903 Z" id="Shape"></path>
                    </g>
                </g>
            </g>
        </g>
    </g>
</svg>