<?xml version="1.0" encoding="UTF-8" standalone="no"?>
<svg width="18px" height="24px" viewBox="0 0 18 24" version="1.1" xmlns="http://www.w3.org/2000/svg" xmlns:xlink="http://www.w3.org/1999/xlink" xmlns:sketch="http://www.bohemiancoding.com/sketch/ns">
    <!-- Generator: Sketch 3.3.3 (12072) - http://www.bohemiancoding.com/sketch -->
    <title>icon-index</title>
    <desc>Created with Sketch.</desc>
    <defs></defs>
    <g id="Page-1" stroke="none" stroke-width="1" fill="none" fill-rule="evenodd" sketch:type="MSPage">
        <g id="Home" sketch:type="MSArtboardGroup" transform="translate(-250.000000, -25.000000)" fill="#005A54">
            <g id="icon-index" sketch:type="MSLayerGroup" transform="translate(250.000000, 25.000000)">
                <path d="M0.659858602,21.0473647 L0.659858602,11.6864786 L0.659858602,11.0834998 L0.659858602,4.38197581 C0.659858602,2.30183755 2.51340141,0.688879183 4.59353967,0.688879183 L11.3495679,0.688879183 L11.349304,0.711446347 C13.4297062,0.711446347 14.9128044,2.30183755 14.9128044,4.38197581 L14.9128044,11.1192641 C14.9128044,13.1992704 13.4108342,15.0737967 11.330564,15.0737967 L6.95741712,15.0737967 L0.659858602,21.0473647 Z M15.5223818,3.67064823 C15.2173951,1.5320465 13.5406944,0.0290205813 11.330564,0.0290205813 L4.59353967,0.0290205813 C2.08818853,0.0290205813 2.84217094e-14,1.9548839 2.84217094e-14,4.38197581 L2.84217094e-14,11.0834998 L2.84217094e-14,11.6864786 L2.84217094e-14,21.0473647 L2.84217094e-14,22.7244613 L1.2212663,21.5881848 L3.29929301,19.5684896 L3.29929301,23.6229247 L9.52796229,17.3173159 L13.9013731,17.3173159 C15.9815114,17.3173159 17.6842105,15.7748305 17.6842105,13.6946922 L17.6842105,6.9575359 C17.6842105,5.45728138 16.7967007,4.236411 15.5223818,3.67064823 L15.5223818,3.67064823 Z" id="Fill-1" sketch:type="MSShapeGroup"></path>
                <path d="M9.36999214,9.00307117 C9.36999214,9.14824006 9.2512176,9.26701461 9.1060487,9.26701461 L7.39041634,9.26701461 C7.24524745,9.26701461 7.1264729,9.14824006 7.1264729,9.00307117 L7.1264729,3.46025892 C7.1264729,3.31509002 7.24524745,3.19631548 7.39041634,3.19631548 L9.1060487,3.19631548 C9.2512176,3.19631548 9.36999214,3.31509002 9.36999214,3.46025892 L9.36999214,9.00307117 Z" id="Fill-4" sketch:type="MSShapeGroup"></path>
                <path d="M9.36999214,12.1703925 C9.36999214,12.3155614 9.2512176,12.4343359 9.1060487,12.4343359 L7.39041634,12.4343359 C7.24524745,12.4343359 7.1264729,12.3155614 7.1264729,12.1703925 L7.1264729,10.4547601 C7.1264729,10.3095912 7.24524745,10.1908167 7.39041634,10.1908167 L9.1060487,10.1908167 C9.2512176,10.1908167 9.36999214,10.3095912 9.36999214,10.4547601 L9.36999214,12.1703925 Z" id="Fill-6" sketch:type="MSShapeGroup"></path>
            </g>
        </g>
    </g>
</svg>