<?xml version="1.0" encoding="UTF-8" standalone="no"?>
<svg width="39px" height="36px" viewBox="0 0 39 36" version="1.1" xmlns="http://www.w3.org/2000/svg" xmlns:xlink="http://www.w3.org/1999/xlink" xmlns:sketch="http://www.bohemiancoding.com/sketch/ns">
    <!-- Generator: Sketch 3.3.3 (12072) - http://www.bohemiancoding.com/sketch -->
    <title>love</title>
    <desc>Created with Sketch.</desc>
    <defs></defs>
    <g id="Page-1" stroke="none" stroke-width="1" fill="none" fill-rule="evenodd" sketch:type="MSPage">
        <g id="Home" sketch:type="MSArtboardGroup" transform="translate(-605.000000, -789.000000)" fill="#D115B2">
            <g id="fi-heart-+-Find-Love-+-Find-that-special-so" sketch:type="MSLayerGroup" transform="translate(605.000000, 789.000000)">
                <g id="love" sketch:type="MSShapeGroup">
                    <path d="M28.0834125,0.224756757 C24.666525,0.224756757 21.534825,1.8 19.5,4.44454054 C17.465175,1.79951351 14.333475,0.224756757 10.915125,0.224756757 C4.93545,0.224756757 0.0521625,5.09594595 0.02925,11.0831351 C0.006825,17.5266486 3.1292625,21.3256216 5.6389125,24.3792973 L6.1771125,25.0355676 C9.148425,28.6915135 18.3607125,35.2581081 18.7507125,35.5358919 C18.9739875,35.6954595 19.2382125,35.7752432 19.5004875,35.7752432 C19.76325,35.7752432 20.0269875,35.694973 20.25075,35.5358919 C20.64075,35.2581081 29.8530375,28.6915135 32.82435,25.0355676 L33.3620625,24.3792973 C35.871225,21.3256216 38.99415,17.5266486 38.971725,11.0831351 C38.948325,5.09594595 34.06455,0.224756757 28.0834125,0.224756757 L28.0834125,0.224756757 Z" id="Shape"></path>
                </g>
            </g>
        </g>
    </g>
</svg>