<?xml version="1.0" encoding="UTF-8" standalone="no"?>
<svg width="250px" height="250px" viewBox="0 0 250 250" version="1.1" xmlns="http://www.w3.org/2000/svg" xmlns:xlink="http://www.w3.org/1999/xlink" xmlns:sketch="http://www.bohemiancoding.com/sketch/ns">
    <!-- Generator: Sketch 3.3.3 (12072) - http://www.bohemiancoding.com/sketch -->
    <title>avatar</title>
    <desc>Created with Sketch.</desc>
    <defs></defs>
    <g id="Page-3" stroke="none" stroke-width="1" fill="none" fill-rule="evenodd" sketch:type="MSPage">
        <g id="avatar" sketch:type="MSLayerGroup">
            <rect id="Rectangle-55" fill="#D8D8D8" sketch:type="MSShapeGroup" x="0" y="0" width="250" height="250"></rect>
            <g id="fi-torso" transform="translate(44.949799, 35.500000)" fill="#FFFFFF" sketch:type="MSShapeGroup">
                <path d="M154.127628,115.038122 L115.665624,96.7669054 L99.4015503,89.0401622 C106.504495,84.5836486 112.273796,77.7056486 116.04877,69.4187838 C119.045172,62.8391892 120.828276,55.3937297 120.828276,47.4297297 C120.828276,42.9609865 120.116017,38.7172703 119.123766,34.6227568 C114.28777,14.7836892 98.728588,0.166716216 80.0502008,0.166716216 C61.7254872,0.166716216 46.3996311,14.2627027 41.2639956,33.5416486 C40.0801715,37.9639189 39.2623013,42.5622973 39.2623013,47.4346216 C39.2623013,55.8951486 41.2468032,63.7833243 44.6189827,70.6442027 C48.5167606,78.6033108 54.2958855,85.1657838 61.3300605,89.3850405 L45.7536855,96.6079189 L6.04399927,115.025892 C2.59568164,116.635324 0.32873208,120.509703 0.32873208,124.836581 L0.32873208,161.677419 L0.32873208,168.288811 C0.32873208,174.112608 4.40334672,178.83573 9.43582737,178.83573 L150.671942,178.83573 C155.701967,178.83573 159.779038,174.115054 159.779038,168.288811 L159.779038,161.677419 L159.779038,124.834135 C159.774126,120.521932 157.544017,116.684243 154.127628,115.038122 L154.127628,115.038122 Z" id="Shape"></path>
            </g>
        </g>
    </g>
</svg>