<?xml version="1.0" encoding="UTF-8" standalone="no"?>
<svg width="54px" height="54px" viewBox="0 0 54 54" version="1.1" xmlns="http://www.w3.org/2000/svg" xmlns:xlink="http://www.w3.org/1999/xlink" xmlns:sketch="http://www.bohemiancoding.com/sketch/ns">
    <!-- Generator: Sketch 3.3.3 (12072) - http://www.bohemiancoding.com/sketch -->
    <title>bullhorn</title>
    <desc>Created with Sketch.</desc>
    <defs></defs>
    <g id="Page-1" stroke="none" stroke-width="1" fill="none" fill-rule="evenodd" sketch:type="MSPage">
        <g id="Home" sketch:type="MSArtboardGroup" transform="translate(-695.000000, -195.000000)">
            <g id="bullhorn" sketch:type="MSLayerGroup" transform="translate(695.000000, 195.000000)">
                <circle id="Oval-1" fill="#00D2C3" sketch:type="MSShapeGroup" cx="27" cy="27" r="27"></circle>
                <g id="fi-megaphone" transform="translate(24.500000, 28.500000) rotate(-30.000000) translate(-24.500000, -28.500000) translate(13.000000, 17.000000)" fill="#FFFFFF" sketch:type="MSShapeGroup">
                    <g id="Group">
                        <path d="M4.63873684,4.81974324 C2.14142105,4.81974324 0.117118421,6.89875676 0.117118421,9.46356757 C0.117118421,12.0283784 2.14142105,14.1073919 4.63873684,14.1073919 C5.04940789,14.1073919 5.38684211,13.7975135 5.44857895,13.3937703 L5.46159211,13.3937703 L5.46159211,5.66514865 C5.46159211,5.19862162 5.09298684,4.81974324 4.63873684,4.81974324 L4.63873684,4.81974324 Z" id="Shape"></path>
                        <path d="M22.8831842,1.03002703 C22.8831842,0.5635 22.5148816,0.184932432 22.0603289,0.184932432 C21.8717895,0.184932432 21.7001974,0.252689189 21.5615921,0.362094595 L14.3208289,4.65563514 L7.79367105,4.65563514 C7.33911842,4.65563514 6.97081579,5.03389189 6.97081579,5.50072973 L6.97081579,13.5224459 L6.98110526,13.5224459 C7.03164474,13.9392432 7.37392105,14.2631081 7.79367105,14.2631081 L13.5854342,14.2631081 L21.5022763,18.9572838 C21.6490526,19.0971486 21.84425,19.1844865 22.0603289,19.1844865 C22.5145789,19.1844865 22.8831842,18.8059189 22.8831842,18.3393919 C22.8831842,18.3073784 22.8774342,18.2769189 22.8741053,18.2458378 L22.8831842,18.2458378 L22.8831842,16.8148649 L22.8831842,2.50948649 L22.8831842,1.07913514 L22.8783421,1.07913514 C22.87925,1.06266216 22.8831842,1.04712162 22.8831842,1.03002703 L22.8831842,1.03002703 Z" id="Shape"></path>
                        <path d="M13.3799474,20.6912973 L13.3684474,20.6707838 C13.3645132,20.6633243 13.3626974,20.6555541 13.3584605,20.6480946 C13.3542237,20.6406351 13.3487763,20.6350405 13.3445395,20.6282027 L10.8311842,16.1578108 L10.8218026,16.1634054 C10.6844079,15.9694595 10.4798289,15.8507297 10.2598158,15.8227568 L10.2598158,15.8134324 L8.07421053,15.8134324 L8.07421053,15.819027 C7.95678947,15.828973 7.83967105,15.8622297 7.73072368,15.9268784 C7.337,16.1599865 7.20232895,16.6771757 7.42960526,17.0812297 C7.44897368,17.1154189 7.47257895,17.1452568 7.49588158,17.1754054 L7.48619737,17.1813108 L10.4150658,22.3917432 C10.4153684,22.3923649 10.4153684,22.3926757 10.4156711,22.3932973 C10.4159737,22.3939189 10.4162763,22.3942297 10.4165789,22.3945405 L10.4459342,22.4467568 L10.4510789,22.4436486 C10.6913684,22.8057432 11.1640789,22.9250946 11.5393421,22.7022432 C11.5832237,22.6761351 11.6228684,22.6453649 11.6600921,22.6130405 L11.6676579,22.6264054 L13.1756711,21.7325135 L13.1687105,21.7200811 C13.46075,21.4723649 13.5512368,21.0471757 13.3778289,20.6925405 L13.3799474,20.6912973 L13.3799474,20.6912973 Z" id="Shape"></path>
                    </g>
                </g>
                <path d="M33.5,14.5 L37.5,10.5" id="Line" stroke="#FFFFFF" stroke-width="2" stroke-linecap="round" sketch:type="MSShapeGroup"></path>
                <path d="M37.5,20.5 L41.5,16.5" id="Line-Copy" stroke="#FFFFFF" stroke-width="2" stroke-linecap="round" sketch:type="MSShapeGroup" transform="translate(39.500000, 18.500000) rotate(-345.000000) translate(-39.500000, -18.500000) "></path>
                <path d="M39.8298114,24.6462644 L45.293913,23.1821628" id="Line-Copy-2" stroke="#FFFFFF" stroke-width="2" stroke-linecap="round" sketch:type="MSShapeGroup"></path>
            </g>
        </g>
    </g>
</svg>