<?xml version="1.0" encoding="UTF-8" standalone="no"?>
<svg width="32px" height="36px" viewBox="0 0 32 36" version="1.1" xmlns="http://www.w3.org/2000/svg" xmlns:xlink="http://www.w3.org/1999/xlink" xmlns:sketch="http://www.bohemiancoding.com/sketch/ns">
    <!-- Generator: Sketch 3.3.3 (12072) - http://www.bohemiancoding.com/sketch -->
    <title>clipboard</title>
    <desc>Created with Sketch.</desc>
    <defs></defs>
    <g id="Page-1" stroke="none" stroke-width="1" fill="none" fill-rule="evenodd" sketch:type="MSPage">
        <g id="Home" sketch:type="MSArtboardGroup" transform="translate(-282.000000, -764.000000)" fill="#FFFFFF">
            <g id="Answer-a-short-quest-+-Twenty-questions-is--+-fi-clipboard-pencil" sketch:type="MSLayerGroup" transform="translate(282.000000, 763.000000)">
                <g id="clipboard" transform="translate(0.000000, 1.000000)" sketch:type="MSShapeGroup">
                    <g id="Group">
                        <path d="M31.4873182,15.1547727 L28.1110909,11.7797727 C27.9155455,11.583 27.5956364,11.583 27.4000909,11.7797727 L18.1615909,21.0170455 L18.18,21.0354545 L18.1505455,21.0272727 L16.8860455,25.7457273 L16.8897273,25.7465455 C16.8324545,25.9204091 16.8680455,26.118 17.0067273,26.2575 C17.1605455,26.4125455 17.3867727,26.442 17.5725,26.3544545 L17.5733182,26.3581364 L22.2430909,25.1067273 L22.2402273,25.0956818 L22.248,25.1034545 L31.4869091,15.8649545 C31.6828636,15.6698182 31.6828636,15.3495 31.4873182,15.1547727 L31.4873182,15.1547727 Z M18.4234091,24.8305909 L19.1745,22.0299545 L21.2248636,24.0803182 L18.4234091,24.8305909 L18.4234091,24.8305909 Z" id="Shape"></path>
                        <path d="M24.9410455,27.5031818 L24.9410455,27.5031818 L21.8794091,27.5031818 L21.879,27.5031818 C21.6008182,27.5044091 21.3778636,27.7273636 21.3766364,28.0059545 L21.3774545,28.0108636 L21.3774545,31.5760909 L4.34127273,31.5760909 L4.34127273,6.46731818 L6.3855,6.46731818 L6.3855,7.72281818 C6.38468182,7.73631818 6.38140909,7.74859091 6.38140909,7.7625 C6.38140909,8.17077273 6.71277273,8.50459091 7.1235,8.50459091 C7.12554545,8.50459091 7.12718182,8.50418182 7.12922727,8.50418182 L7.12922727,8.50745455 L18.5948182,8.50745455 C19.0059545,8.50663636 19.3365,8.17363636 19.3365,7.76577273 C19.3365,7.75963636 19.3348636,7.75390909 19.3348636,7.74777273 L19.3348636,6.46731818 L21.3770455,6.46731818 L21.3770455,10.0337727 L21.3762273,10.0386818 C21.3770455,10.3176818 21.5995909,10.5406364 21.8785909,10.5414545 L24.9402273,10.5414545 L24.9406364,10.5414545 C25.2188182,10.5402273 25.4417727,10.3176818 25.443,10.0390909 L25.443,10.0390909 L25.443,4.60636364 L25.4352273,4.60636364 C25.4356364,4.58631818 25.4413636,4.5675 25.4413636,4.54704545 C25.4413636,3.36354545 24.4816364,2.40136364 23.2973182,2.40136364 C23.2809545,2.40136364 23.2662273,2.40586364 23.2498636,2.40627273 L17.2947273,2.40627273 L17.2947273,1.01454545 L17.2947273,1.01372727 C17.2947273,0.653318182 17.0026364,0.362045455 16.6430455,0.361227273 L16.6430455,0.357954545 L9.09531818,0.357954545 L9.09531818,0.360409091 C9.08918182,0.360409091 9.08386364,0.358772727 9.07772727,0.358772727 C8.71772727,0.358772727 8.42563636,0.650454545 8.42563636,1.01086364 C8.42563636,1.01495455 8.42686364,1.01904545 8.42686364,1.02313636 L8.42686364,2.40586364 L2.42795455,2.40586364 C2.42509091,2.40586364 2.42263636,2.40504545 2.41977273,2.40504545 C1.23627273,2.40504545 0.275318182,3.36804545 0.275318182,4.54990909 C0.275318182,4.56913636 0.280636364,4.58672727 0.281045455,4.60595455 L0.275318182,4.60595455 L0.275318182,33.4763182 L0.276545455,33.4763182 C0.276545455,33.48 0.275318182,33.4836818 0.275318182,33.4873636 C0.275318182,34.6716818 1.23668182,35.6301818 2.42018182,35.6301818 C2.45209091,35.6301818 2.48195455,35.622 2.51386364,35.6207727 L2.51386364,35.6293636 L23.1729545,35.6293636 C23.2130455,35.6314091 23.2510909,35.6412273 23.2915909,35.6412273 C24.4755,35.6412273 25.4348182,34.6806818 25.4348182,33.4984091 C25.4348182,33.4906364 25.4327727,33.4836818 25.4327727,33.4759091 L25.4442273,33.4759091 L25.4442273,28.0055455 C25.4425909,27.7265455 25.2200455,27.504 24.9410455,27.5031818 L24.9410455,27.5031818 Z" id="Shape"></path>
                    </g>
                </g>
            </g>
        </g>
    </g>
</svg>