<?xml version="1.0" encoding="UTF-8" standalone="no"?>
<svg width="43px" height="37px" viewBox="0 0 43 37" version="1.1" xmlns="http://www.w3.org/2000/svg" xmlns:xlink="http://www.w3.org/1999/xlink" xmlns:sketch="http://www.bohemiancoding.com/sketch/ns">
    <!-- Generator: Sketch 3.3.3 (12072) - http://www.bohemiancoding.com/sketch -->
    <title>friends</title>
    <desc>Created with Sketch.</desc>
    <defs></defs>
    <g id="Page-1" stroke="none" stroke-width="1" fill="none" fill-rule="evenodd" sketch:type="MSPage">
        <g id="Home" sketch:type="MSArtboardGroup" transform="translate(-603.000000, -671.000000)" fill="#D115B2">
            <g id="Find-Friends-+-fi-torsos-female-male-+-No-one-in-your-life-" sketch:type="MSLayerGroup" transform="translate(603.000000, 671.000000)">
                <g id="friends" transform="translate(0.000000, 0.536000)" sketch:type="MSShapeGroup">
                    <g id="Group">
                        <path d="M13.7184324,16.56 L13.7184324,16.0847027 L13.7184324,13.4391892 L13.7291351,13.4391892 C13.8084324,10.7800541 14.4053514,8.31745946 15.3744324,6.25524324 C15.4829189,5.89962162 15.605027,5.5512973 15.7422162,5.21172973 C14.8281081,4.60313514 13.7836216,4.22805405 12.6535135,4.22805405 C9.19264865,4.22805405 6.39145946,7.48848649 6.39145946,11.5146486 C6.39145946,14.3314054 7.76821622,16.7691892 9.77837838,17.9824865 L1.29016216,21.9337297 C0.760864865,22.1823243 0.412540541,22.7797297 0.412540541,23.4471892 L0.412540541,30.1465946 C0.412540541,31.0446486 1.03962162,31.7719459 1.8107027,31.7719459 L7.42086486,31.7719459 L7.42086486,24.7422162 C7.42086486,22.9232432 8.42691892,21.2779459 9.98708108,20.5472432 L13.7179459,18.8095135 L13.7179459,16.56 L13.7184324,16.56 Z" id="Shape"></path>
                        <path d="M41.2798378,23.0794054 L33.6614595,19.4453514 L30.4404324,17.9085405 C30.5211892,17.8574595 30.5980541,17.7995676 30.6773514,17.7455676 L34.9073514,17.7455676 C35.5621622,17.7455676 36.0934054,17.2148108 36.0934054,16.5595135 L36.0934054,13.4387027 L36.0827027,13.4387027 C35.9532973,9.09097297 34.4442162,5.2667027 32.1767027,2.86686486 C30.9799459,1.51589189 29.4280541,0.598378378 27.6917838,0.324486486 C27.6154054,0.311837838 27.5385405,0.300648649 27.4611892,0.290432432 C27.3711892,0.279243243 27.2816757,0.268054054 27.1911892,0.26027027 C26.9975676,0.243243243 26.802973,0.231567568 26.6064324,0.231567568 C26.4128108,0.231567568 26.2206486,0.242756757 26.0294595,0.259297297 C25.9384865,0.267081081 25.8484865,0.27827027 25.7584865,0.289459459 C25.6821081,0.299189189 25.6062162,0.310378378 25.5303243,0.322540541 C23.8120541,0.591567568 22.2737838,1.49254054 21.0814054,2.82016216 C18.7890811,5.21708108 17.261027,9.06275676 17.1306486,13.4387027 L17.1199459,13.4387027 L17.1199459,16.5595135 C17.1199459,17.2143243 17.6507027,17.7455676 18.306,17.7455676 L22.5476757,17.7455676 C22.6634595,17.8243784 22.7787568,17.9046486 22.8984324,17.9766486 L19.8131351,19.4132432 L11.9476216,23.0764865 C11.2641081,23.3965946 10.8150811,24.1671892 10.8150811,25.0277838 L10.8150811,32.3552432 L10.8150811,33.6702162 C10.8150811,34.8285405 11.6221622,35.7674595 12.618973,35.7674595 L40.5943784,35.7674595 C41.5911892,35.7674595 42.3982703,34.8285405 42.3982703,33.6702162 L42.3982703,32.3552432 L42.3982703,25.0277838 C42.3982703,24.1701081 41.9565405,23.4068108 41.2798378,23.0794054 L41.2798378,23.0794054 Z" id="Shape"></path>
                    </g>
                </g>
            </g>
        </g>
    </g>
</svg>