<?xml version="1.0" encoding="UTF-8" standalone="no"?>
<svg width="135px" height="33px" viewBox="0 0 135 33" version="1.1" xmlns="http://www.w3.org/2000/svg" xmlns:xlink="http://www.w3.org/1999/xlink" xmlns:sketch="http://www.bohemiancoding.com/sketch/ns">
    <!-- Generator: Sketch 3.3.3 (12072) - http://www.bohemiancoding.com/sketch -->
    <title>logo</title>
    <desc>Created with Sketch.</desc>
    <defs>
        <path id="path-1" d="M0,0.119325988 L24.0446351,0.119325988 L24.0446351,32.119326 L0,32.119326 L0,0.119325988 Z"></path>
    </defs>
    <g id="Page-3" stroke="none" stroke-width="1" fill="none" fill-rule="evenodd" sketch:type="MSPage">
        <g id="Dashboard" sketch:type="MSArtboardGroup" transform="translate(-32.000000, -16.000000)">
            <g id="logo" sketch:type="MSLayerGroup" transform="translate(32.000000, 15.000000)">
                <text id="partisan.io" sketch:type="MSTextLayer" font-family="Proxima Nova" font-size="18" font-weight="bold" fill="#D215B3">
                    <tspan x="35" y="18">partisan.io</tspan>
                </text>
                <g id="Imported-Layers" transform="translate(0.000000, 1.000000)">
                    <path d="M18.9460779,4.60526537 L9.78561023,4.60526537 C6.95731517,4.60526537 4.48592144,6.63183335 4.48592144,9.45994897 L4.48592144,18.6200578 C4.48592144,18.9496846 4.67594583,19.3191466 4.73587798,19.6780217 L4.48592144,19.6780217 L4.48592144,32.119326 L12.9996961,23.6256484 L18.9460779,23.6256484 C21.7743729,23.6256484 24.0446172,21.4485323 24.0446172,18.6200578 L24.0446172,9.45994897 C24.0446172,6.63183335 21.7743729,4.60526537 18.9460779,4.60526537" id="Fill-1" fill="#007A77" sketch:type="MSShapeGroup"></path>
                    <path d="M0.538312726,5.9580632 C0.538312726,2.92179998 3.14787338,0.657656657 6.29054308,0.657656657 L15.4506519,0.657656657 C18.5064738,0.657656657 20.6353212,2.81898225 20.6353212,5.9580632 L20.6353212,15.1185309 C20.6353212,18.3087515 18.4564107,20.7546651 15.4506519,20.7546651 L9.70021589,20.7546651 L0.538312726,29.7575866 L0.538312726,5.9580632 Z" id="Fill-3" fill="#00D8D4" sketch:type="MSShapeGroup"></path>
                    <path d="M15.4507236,0.119325988 L6.29061485,0.119325988 C2.88417192,0.119325988 7.17750301e-05,2.6580088 7.17750301e-05,5.95804525 L7.17750301e-05,15.0698853 L7.17750301e-05,15.8897356 L7.17750301e-05,28.6174223 L7.17750301e-05,30.897715 L1.68283736,29.392772 L9.89569518,21.4723975 L15.4507236,21.4723975 C18.7243828,21.4723975 21.1737057,18.5769927 21.1737057,15.1185129 L21.1737057,5.95804525 C21.1737057,2.54621919 18.7566815,0.119325988 15.4282939,0.119325988 L15.4507236,0.119325988 Z M15.4313444,1.00718311 C18.2598189,1.00718311 20.2765178,3.12975019 20.2765178,5.95804525 L20.2765178,15.1185129 C20.2765178,17.9466285 18.2791981,20.5752096 15.4507236,20.5752096 L9.50452127,20.5752096 L0.897259652,28.6174223 L0.897259652,15.8897356 L0.897259652,15.0698853 L0.897259652,5.95804525 C0.897259652,3.12975019 3.46214035,1.01651386 6.29061485,1.01651386 L15.4317033,1.01651386 L15.4313444,1.00718311 Z" id="Fill-5" fill="#007A77" sketch:type="MSShapeGroup"></path>
                    <mask id="mask-2" sketch:name="Clip 8" fill="white">
                        <use xlink:href="#path-1"></use>
                    </mask>
                    <g id="Clip-8"></g>
                    <path d="M12.7400678,12.6799563 L9.68962907,12.6799563 L9.68962907,4.4258278 L12.7400678,4.4258278 L12.7400678,12.6799563 Z" id="Fill-7" fill="#007A77" sketch:type="MSShapeGroup" mask="url(#mask-2)"></path>
                    <path d="M12.7400678,16.8070205 L9.68962907,16.8070205 L9.68962907,13.7565817 L12.7400678,13.7565817 L12.7400678,16.8070205 Z" id="Fill-9" fill="#007A77" sketch:type="MSShapeGroup" mask="url(#mask-2)"></path>
                </g>
                <text id="™" sketch:type="MSTextLayer" font-family="Proxima Nova" font-size="18" font-weight="normal" fill="#4A4A4A">
                    <tspan x="127" y="17.992">™</tspan>
                </text>
            </g>
        </g>
    </g>
</svg>