<?xml version="1.0" encoding="UTF-8" standalone="no"?>
<svg width="41px" height="24px" viewBox="0 0 41 24" version="1.1" xmlns="http://www.w3.org/2000/svg" xmlns:xlink="http://www.w3.org/1999/xlink" xmlns:sketch="http://www.bohemiancoding.com/sketch/ns">
    <!-- Generator: Sketch 3.3.3 (12072) - http://www.bohemiancoding.com/sketch -->
    <title>matches</title>
    <desc>Created with Sketch.</desc>
    <defs></defs>
    <g id="Page-1" stroke="none" stroke-width="1" fill="none" fill-rule="evenodd" sketch:type="MSPage">
        <g id="Home" sketch:type="MSArtboardGroup" transform="translate(-277.000000, -989.000000)" fill="#FFFFFF">
            <g id="Answer-a-short-quest-+-Twenty-questions-is--+-fi-clipboard-pencil-Copy-2" sketch:type="MSLayerGroup" transform="translate(277.000000, 986.000000)">
                <g id="matches" transform="translate(0.000000, 3.000000)" sketch:type="MSShapeGroup">
                    <g id="Group">
                        <path d="M10.6457778,10.4471111 C10.0302222,9.18933333 9.70488889,7.77688889 9.70488889,6.36177778 C9.70488889,5.58711111 9.81688889,4.79111111 10.0462222,3.93155556 C10.1488889,3.54488889 10.2777778,3.17511111 10.4226667,2.81644444 C9.86666667,2.51288889 9.25555556,2.32622222 8.6,2.32622222 C6.16888889,2.32622222 4.20088889,4.61644444 4.20088889,7.44488889 C4.20088889,9.42355556 5.168,11.136 6.58044444,11.988 L0.618222222,14.7631111 C0.246666667,14.9377778 0.00177777778,15.3573333 0.00177777778,15.8262222 L0.00177777778,20.532 C0.00177777778,21.1626667 0.442222222,21.6737778 0.984,21.6737778 L4.508,21.6737778 L4.508,16.736 C4.508,15.2973333 5.30888889,13.9928889 6.552,13.4111111 L11.1128889,11.2871111 C10.944,11.0186667 10.788,10.7382222 10.6457778,10.4471111 L10.6457778,10.4471111 Z" id="Shape"></path>
                        <path d="M24.9497778,5.24488889 L40.1017778,5.24488889 L40.1017778,5.24444444 C40.1026667,5.24444444 40.1035556,5.24488889 40.1044444,5.24488889 C40.5368889,5.24488889 40.8871111,4.89422222 40.8871111,4.46222222 L40.8871111,4.46177778 L40.8871111,1.604 C40.8871111,1.17155556 40.5364444,0.821333333 40.1044444,0.821333333 C40.1035556,0.821333333 40.1026667,0.821777778 40.1017778,0.821777778 L40.1017778,0.819555556 L23.1702222,0.819555556 C23.8875556,1.75911111 24.4342222,2.876 24.7373333,4.124 C24.8328889,4.51911111 24.9022222,4.88844444 24.9497778,5.24488889 L24.9497778,5.24488889 Z" id="Shape"></path>
                        <path d="M40.8871111,19.3048889 C40.8871111,18.8724444 40.5364444,18.5222222 40.1044444,18.5222222 C40.1035556,18.5222222 40.1026667,18.5226667 40.1017778,18.5226667 L40.1017778,18.5204444 L30.2253333,18.5204444 L30.2253333,21.6737778 L30.2253333,22.56 C30.2253333,22.6902222 30.2182222,22.8186667 30.2053333,22.9453333 L40.1017778,22.9453333 L40.1017778,22.9448889 C40.1026667,22.9448889 40.1035556,22.9453333 40.1044444,22.9453333 C40.5368889,22.9453333 40.8871111,22.5946667 40.8871111,22.1626667 L40.8871111,22.1622222 L40.8871111,19.3048889 L40.8871111,19.3048889 Z" id="Shape"></path>
                        <path d="M40.1044444,9.672 C40.1035556,9.672 40.1026667,9.67244444 40.1017778,9.67244444 L40.1017778,9.67022222 L24.4195556,9.67022222 C24.3488889,9.85644444 24.2742222,10.0417778 24.1911111,10.2253333 C24.0293333,10.5817778 23.8475556,10.9226667 23.6471111,11.2462222 L28.2195556,13.4275556 C28.5666667,13.5955556 28.8742222,13.8262222 29.1431111,14.0955556 L40.1017778,14.0955556 L40.1017778,14.0951111 C40.1026667,14.0951111 40.1035556,14.0955556 40.1044444,14.0955556 C40.5368889,14.0955556 40.8871111,13.7448889 40.8871111,13.3128889 L40.8871111,13.3124444 L40.8871111,10.4546667 C40.8871111,10.0222222 40.5364444,9.672 40.1044444,9.672 L40.1044444,9.672 Z" id="Shape"></path>
                        <path d="M27.2546667,15.4231111 L22.1208889,12.9742222 L19.9497778,11.9386667 C20.8982222,11.3413333 21.668,10.4195556 22.172,9.30888889 C22.5715556,8.42711111 22.8097778,7.42844444 22.8097778,6.36177778 C22.8097778,5.76266667 22.7151111,5.19422222 22.5822222,4.64488889 C21.9364444,1.98577778 19.8595556,0.0262222222 17.3662222,0.0262222222 C14.92,0.0262222222 12.8746667,1.91555556 12.1893333,4.49955556 C12.0311111,5.092 11.9217778,5.70844444 11.9217778,6.36133333 C11.9217778,7.49555556 12.1866667,8.55244444 12.6368889,9.47244444 C13.1573333,10.5391111 13.9284444,11.4186667 14.8671111,11.984 L12.788,12.952 L7.48755556,15.4204444 C7.02666667,15.636 6.72444444,16.1555556 6.72444444,16.7355556 L6.72444444,21.6737778 L6.72444444,22.56 C6.72444444,23.3404444 7.26844444,23.9737778 7.94,23.9737778 L26.792,23.9737778 C27.4635556,23.9737778 28.0075556,23.3408889 28.0075556,22.56 L28.0075556,21.6737778 L28.0075556,16.736 C28.0084444,16.1577778 27.7106667,15.6435556 27.2546667,15.4231111 L27.2546667,15.4231111 Z" id="Shape"></path>
                    </g>
                </g>
            </g>
        </g>
    </g>
</svg>